# xmcd
#
# Track frame offsets: 
#        150
#        14826
#        30198
#        42443
#        55950
#        66646
#        76630
#        89282
#        101921
#        116117
#        127635
#        140587
#        151723
#        161039
#        171458
#        183373
#        196846
#        206383
#        215341
#        229626
#        240795
#        253613
#        267400
#        279390
#        290415
#        300963
#        311337
#        322644
#
# Disc length: 4451 seconds
#
# Revision: 2
# Processed by: cddbd v1.5.2PL0 Copyright (c) Steve Scherf et al.
# Submitted via: ExactAudioCopyFreeDBPlugin 1.0
#
DISCID=7611611c
DTITLE=Various Artist - The Complete Meteor Blues, R&B, and Gospel Reco
DTITLE=rdings
DYEAR=2006
DGENRE=Rhythm and Blues
TTITLE0=Elmore James - I Believe
TTITLE1=Elmore James - I Held My Baby Last Night
TTITLE2=The Bep Brown Orchestra (Sax Man Brown with the Browndusters) 
TTITLE2=/ Round House Boogie (aka "Sax Symphonic Boogie")
TTITLE3=The Bep Brown Orchestra (Sax Man Brown with the Browndusters) 
TTITLE3=/ Kickin' the Blues Around (aka "Flaming Blues")
TTITLE4=Carl "Mr. Broadway" Green and His Orchestra - My Best Friend
TTITLE5=Carl "Mr. Broadway" Green and His Orchestra - Four Years Seven D
TTITLE5=ays
TTITLE6=Elmore James - Baby What's Wrong
TTITLE7=Elmore James - Sinful Women
TTITLE8=Chicago Sunny Boy - Western Union Man
TTITLE9=Chicago Sunny Boy - Jackpot (aka "At the Woodchopper's Ball")
TTITLE10=Earl "Whoppin' and Hollerin'" Forest - I Wronged a Woman
TTITLE11=Earl "Whoppin' and Hollerin'" Forest - I Can't Forgive You
TTITLE12=Baby Face Turner - Gonna Let You Go
TTITLE13=Sunny Blair - Please Send My Baby Back (aka "Step Back Baby")
TTITLE14=Chicago Sunny Boy - Love You Baby
TTITLE15=Chicago Sunny Boy - On the Floor
TTITLE16=Jimmy Wright and His Orchestra - Porkey Pine
TTITLE17=Jimmy Wright and His Orchestra - Scoth Mist
TTITLE18=Carl Green and His Orchestra - Horizon
TTITLE19=Carl Green and His Orchestra - Boogie Freight
TTITLE20=Buster Smith and His Orchestra - Crying in the Chapel
TTITLE21=Buster Smith and His Orchestra - Leapin' in Chicago
TTITLE22=Jimmy Wright and His Orchestra - I'm in the Mood to Be Loved (M
TTITLE22=erry Dee, vocals)
TTITLE23=Jimmy Wright and His Orchestra - Slow Down Daddy (Merry Dee, vo
TTITLE23=cals)
TTITLE24=Leo Baxter and Orchestra - Heartaches (Donnie Grey, vocals)
TTITLE25=Leo Baxter and Orchestra - Can I Depend on You? (Leo Baxter, vo
TTITLE25=cals)
TTITLE26=Al Smith's Progressive Jazz (with The Broomdusters) - Beale S
TTITLE26=treet Stomp
TTITLE27=Al Smith's Progressive Jazz (with The Broomdusters) - Slidin'
TTITLE27=Home (aka "Chop Chop Boogie")
EXTD=
EXTT0=
EXTT1=
EXTT2=
EXTT3=
EXTT4=
EXTT5=
EXTT6=
EXTT7=
EXTT8=
EXTT9=
EXTT10=
EXTT11=
EXTT12=
EXTT13=
EXTT14=
EXTT15=
EXTT16=
EXTT17=
EXTT18=
EXTT19=
EXTT20=
EXTT21=
EXTT22=
EXTT23=
EXTT24=
EXTT25=
EXTT26=
EXTT27=
PLAYORDER=
